PathFileType	4	(X/Y/Z)	/Users/itak/Documents/Research/Walk-IL/dataset/trc/00463_00167.trc
DataRate	CameraRate	NumFrames	NumMarkers	Units	OrigDataRate	OrigDataStartFrame	OrigNumFrames
100.000000	100.000000	4	53	mm	100.000000	0	579
Frame#	Time	RPSI			LPSI			L3			STRN			T10			C7			CLAV			RBAK			LBAK			LSHO			LUPA			LAEL			LAOL			LWTS			LWPS			LFRA			LIFD			LHPS			LHTS			RSHO			RUPA			RAEL			RAOL			RWTS			RWPS			RFRA			RIFD			RHTS			RHPS			RBHD			LFHD			RFHD			LBHD			LHIP			RHIP			RASI			LASI			LKNE			LTHI			LANK			LTIP			LTOE			LMT1			LMT5			LHEE			RKNE			RTHI			RANK			RTIP			RTOE			RMT1			RMT5			RHEE			
		X1	Y1	Z1	X2	Y2	Z2	X3	Y3	Z3	X4	Y4	Z4	X5	Y5	Z5	X6	Y6	Z6	X7	Y7	Z7	X8	Y8	Z8	X9	Y9	Z9	X10	Y10	Z10	X11	Y11	Z11	X12	Y12	Z12	X13	Y13	Z13	X14	Y14	Z14	X15	Y15	Z15	X16	Y16	Z16	X17	Y17	Z17	X18	Y18	Z18	X19	Y19	Z19	X20	Y20	Z20	X21	Y21	Z21	X22	Y22	Z22	X23	Y23	Z23	X24	Y24	Z24	X25	Y25	Z25	X26	Y26	Z26	X27	Y27	Z27	X28	Y28	Z28	X29	Y29	Z29	X30	Y30	Z30	X31	Y31	Z31	X32	Y32	Z32	X33	Y33	Z33	X34	Y34	Z34	X35	Y35	Z35	X36	Y36	Z36	X37	Y37	Z37	X38	Y38	Z38	X39	Y39	Z39	X40	Y40	Z40	X41	Y41	Z41	X42	Y42	Z42	X43	Y43	Z43	X44	Y44	Z44	X45	Y45	Z45	X46	Y46	Z46	X47	Y47	Z47	X48	Y48	Z48	X49	Y49	Z49	X50	Y50	Z50	X51	Y51	Z51	X52	Y52	Z52	X53	Y53	Z53	

1	0	-1264.961181640625	971.6414794921875	-474.8565368652344	-1274.726318359375	969.7156982421875	-616.2691650390625	-1248.597290039062	1064.720092773438	-529.99560546875	-976.8760375976562	1256.195190429688	-581.4043579101562	-1263.027465820312	1187.053955078125	-524.4247436523438	-1187.698852539062	1454.410888671875	-519.9148559570312	-1011.821105957031	1370.171630859375	-576.7152709960938	-1231.59814453125	1332.814086914062	-415.8424377441406	-1243.0927734375	1408.728271484375	-610.2234497070312	-1162.075561523438	1433.264770507812	-711.5645141601562	-1198.7177734375	1318.569946289062	-806.927001953125	-1195.781372070312	1104.5361328125	-852.386962890625	-1256.02392578125	1089.1533203125	-769.7760009765625	-1112.001220703125	899.4984741210938	-836.907470703125	-1171.96142578125	888.7922973632812	-879.9691162109375	-1180.136596679688	1016.820922851562	-869.6925048828125	-1117.351196289062	731.49658203125	-856.2349243164062	-1164.8017578125	810.7647094726562	-889.7426147460938	-1099.886596679688	813.8909301757812	-858.7949829101562	-1088.392822265625	1423.323364257812	-379.1009826660156	-1091.205810546875	1362.259765625	-301.0592346191406	-1067.098999023438	1075.862060546875	-245.8623962402344	-1126.26708984375	1056.746826171875	-272.0577087402344	-970.3175048828125	876.9480590820312	-318.8467102050781	-1018.455261230469	858.8958740234375	-247.2715148925781	-1057.9111328125	1017.178405761719	-238.8617248535156	-961.0469970703125	720.2936401367188	-314.9707336425781	-946.6554565429688	779.8404541015625	-312.0488586425781	-998.7677612304688	772.615478515625	-255.4917297363281	-1043.029663085938	1650.620727539062	-463.2188110351562	-940.8756713867188	1625.821166992188	-641.7822875976562	-916.207763671875	1626.318603515625	-513.2496948242188	-1090.05224609375	1659.1279296875	-634.7771606445312	-1154.089477539062	864.347412109375	-743.8034057617188	-1142.72509765625	865.0682983398438	-347.7060852050781	-1038.416625976562	903.0770263671875	-417.2867736816406	-1047.942504882812	898.8272705078125	-675.587158203125	-1159.936401367188	445.5931091308594	-715.7052001953125	-1133.859130859375	597.09521484375	-739.0590209960938	-1239.837158203125	41.95989990234375	-710.357666015625	-1173.859741210938	301.2200012207031	-730.1156616210938	-997.4015502929688	45.02218627929688	-678.6168823242188	-1068.245239257812	51.69341659545898	-638.76513671875	-1089.407836914062	44.98638916015625	-750.5088500976562	-1272.011840820312	46.74620819091797	-638.993896484375	-1122.991333007812	471.5826416015625	-373.4283447265625	-1100.860961914062	731.1258544921875	-337.5553283691406	-1158.280395507812	43.70636749267578	-357.1802673339844	-1116.093627929688	330.4134521484375	-362.096435546875	-961.7076416015625	49.0377311706543	-454.8441467285156	-1031.972290039062	54.65578079223633	-475.7430419921875	-1020.985656738281	46.02802276611328	-368.5733337402344	-1233.514038085938	34.66294097900391	-387.2862854003906	
2	0.01	-1265.080810546875	971.6505737304688	-474.8098754882812	-1274.805541992188	969.7437744140625	-616.2242431640625	-1248.74462890625	1064.733154296875	-529.7980346679688	-976.7305297851562	1256.17724609375	-581.0440673828125	-1263.093872070312	1187.070434570312	-524.1538696289062	-1187.643676757812	1454.383422851562	-519.509033203125	-1011.791748046875	1370.121215820312	-576.3588256835938	-1231.625732421875	1332.762573242188	-415.4884338378906	-1243.018920898438	1408.770141601562	-609.83984375	-1162.024291992188	1433.321411132812	-711.2366943359375	-1198.780029296875	1318.665283203125	-806.572998046875	-1195.983154296875	1104.723510742188	-852.0924072265625	-1256.16357421875	1089.333129882812	-769.3920288085938	-1112.38427734375	899.5625	-836.797607421875	-1172.428955078125	888.9699096679688	-879.826904296875	-1180.335815429688	1016.939147949219	-869.5009155273438	-1117.838012695312	731.6317138671875	-856.1788940429688	-1165.301147460938	810.9165649414062	-889.6517944335938	-1100.323364257812	814.0219116210938	-858.7501220703125	-1088.362426757812	1423.2080078125	-378.7073669433594	-1091.177490234375	1362.07373046875	-300.70263671875	-1066.979858398438	1075.60693359375	-245.7329864501953	-1126.117065429688	1056.4658203125	-272.0128479003906	-969.7327270507812	877.0656127929688	-319.1620178222656	-1017.881896972656	858.7607421875	-247.5489807128906	-1057.6494140625	1016.922119140625	-238.8472900390625	-960.0189208984375	720.478271484375	-315.4628295898438	-945.80615234375	780.1066284179688	-312.3908996582031	-997.9296264648438	772.5946044921875	-255.9326171875	-1043.175415039062	1650.489379882812	-462.5772094726562	-940.8898315429688	1626.083251953125	-641.1314697265625	-916.3492431640625	1626.499633789062	-512.559814453125	-1090.234619140625	1659.168823242188	-634.2444458007812	-1154.232055664062	864.4951782226562	-743.7823486328125	-1142.798461914062	865.0478515625	-347.6759033203125	-1038.55029296875	903.0597534179688	-417.2672424316406	-1048.007568359375	898.8550415039062	-675.5062866210938	-1160.089477539062	445.5977172851562	-715.739013671875	-1133.946411132812	597.1314697265625	-739.109619140625	-1239.886108398438	41.88643646240234	-710.4581298828125	-1174.045654296875	301.2346496582031	-730.2285766601562	-997.4519653320312	45.03550720214844	-678.656494140625	-1068.293212890625	51.71426010131836	-638.7994995117188	-1089.401489257812	44.96894073486328	-750.5331420898438	-1272.040649414062	46.73371124267578	-639.0847778320312	-1123.125122070312	471.5938720703125	-373.2563781738281	-1100.827880859375	731.1307373046875	-337.5965881347656	-1158.256469726562	43.61034393310547	-357.1200866699219	-1116.159423828125	330.397216796875	-361.9907531738281	-961.7800903320312	49.0379638671875	-454.8917236328125	-1032.072387695312	54.62768936157227	-475.8232116699219	-1021.020385742188	46.05419540405273	-368.5863037109375	-1233.549560546875	34.57444763183594	-387.1394958496094	
3	0.02	-1265.219970703125	971.6700439453125	-474.7529907226562	-1274.919677734375	969.7839965820312	-616.1499633789062	-1248.9267578125	1064.750732421875	-529.5625	-976.5543212890625	1256.15478515625	-580.6017456054688	-1263.185180664062	1187.098876953125	-523.8214111328125	-1187.573364257812	1454.354248046875	-519.0204467773438	-1011.727111816406	1370.066528320312	-575.9188842773438	-1231.650756835938	1332.710205078125	-415.0660705566406	-1242.927734375	1408.827514648438	-609.3733520507812	-1161.950439453125	1433.398071289062	-710.8244018554688	-1198.833740234375	1318.79345703125	-806.1593017578125	-1196.192138671875	1104.9375	-851.7349243164062	-1256.301147460938	1089.548583984375	-768.9349365234375	-1112.822021484375	899.6307983398438	-836.6576538085938	-1172.965942382812	889.183837890625	-879.6495361328125	-1180.567504882812	1017.094787597656	-869.2504272460938	-1118.428588867188	731.756591796875	-856.1192626953125	-1165.858276367188	811.0768432617188	-889.528564453125	-1100.853393554688	814.1561889648438	-858.6904907226562	-1088.320434570312	1423.0673828125	-378.2281188964844	-1091.143188476562	1361.853393554688	-300.2708740234375	-1066.845947265625	1075.30126953125	-245.5741424560547	-1125.948120117188	1056.125366210938	-271.9463806152344	-969.0464477539062	877.2230224609375	-319.5431213378906	-1017.173889160156	858.6058349609375	-247.9029846191406	-1057.34765625	1016.617919921875	-238.833984375	-958.7611083984375	720.7177124023438	-316.0880432128906	-944.7728271484375	780.4327392578125	-312.8436279296875	-996.9043579101562	772.5744018554688	-256.4920959472656	-1043.375122070312	1650.337646484375	-461.79443359375	-940.9207153320312	1626.409790039062	-640.3189697265625	-916.5242309570312	1626.724975585938	-511.7089233398438	-1090.441284179688	1659.20947265625	-633.5802612304688	-1154.41845703125	864.6635131835938	-743.7601928710938	-1142.890380859375	865.024169921875	-347.634033203125	-1038.712646484375	903.03857421875	-417.2428894042969	-1048.087158203125	898.8935546875	-675.4136962890625	-1160.272827148438	445.6099853515625	-715.7791137695312	-1134.051635742188	597.175048828125	-739.1592407226562	-1239.944458007812	41.7872314453125	-710.5750122070312	-1174.279907226562	301.2539978027344	-730.3667602539062	-997.511962890625	45.05031585693359	-678.703857421875	-1068.34765625	51.7426872253418	-638.8469848632812	-1089.397827148438	44.94399642944336	-750.5687255859375	-1272.074951171875	46.72431564331055	-639.191162109375	-1123.282592773438	471.60107421875	-373.0523376464844	-1100.8095703125	731.1398315429688	-337.6238403320312	-1158.228881835938	43.4980354309082	-357.053955078125	-1116.239501953125	330.3756103515625	-361.859130859375	-961.8682861328125	49.03874588012695	-454.9512939453125	-1032.183227539062	54.59235000610352	-475.90478515625	-1021.060913085938	46.08298492431641	-368.6058654785156	-1233.58203125	34.46715927124023	-386.9797668457031	
4	0.03	-1265.368774414062	971.7008666992188	-474.6861877441406	-1275.0712890625	969.8366088867188	-616.0408935546875	-1249.133666992188	1064.772583007812	-529.3029174804688	-976.3609008789062	1256.12841796875	-580.1041870117188	-1263.296997070312	1187.140869140625	-523.4544677734375	-1187.492065429688	1454.3271484375	-518.4822387695312	-1011.625549316406	1370.013305664062	-575.4181518554688	-1231.668090820312	1332.6650390625	-414.6018981933594	-1242.822998046875	1408.900024414062	-608.8546142578125	-1161.851318359375	1433.4931640625	-710.3466186523438	-1198.862548828125	1318.9521484375	-805.7166137695312	-1196.37841796875	1105.159423828125	-851.3343505859375	-1256.414428710938	1089.785034179688	-768.4364624023438	-1113.273559570312	899.6974487304688	-836.5008544921875	-1173.5302734375	889.419921875	-879.4456787109375	-1180.810302734375	1017.282592773438	-868.9486083984375	-1119.078735351562	731.8584594726562	-856.0511474609375	-1166.427368164062	811.2295532226562	-889.3742065429688	-1101.432861328125	814.2769165039062	-858.61328125	-1088.268676757812	1422.91015625	-377.6904907226562	-1091.10546875	1361.6142578125	-299.79052734375	-1066.710571289062	1074.964965820312	-245.3949279785156	-1125.777099609375	1055.745361328125	-271.8566589355469	-968.3035278320312	877.4207153320312	-319.9682312011719	-1016.370544433594	858.442626953125	-248.3196868896484	-1057.031494140625	1016.286560058594	-238.8234710693359	-957.345458984375	721.00537109375	-316.8258666992188	-943.6192016601562	780.8001708984375	-313.3982543945312	-995.7503051757812	772.5584716796875	-257.1475219726562	-1043.625854492188	1650.175415039062	-460.9137878417969	-940.9708251953125	1626.786376953125	-639.3832397460938	-916.726318359375	1626.983642578125	-510.740478515625	-1090.654907226562	1659.246215820312	-632.8157958984375	-1154.641723632812	864.8367309570312	-743.7388305664062	-1142.997314453125	864.9977416992188	-347.5793151855469	-1038.893432617188	903.0133666992188	-417.2142028808594	-1048.178955078125	898.9425048828125	-675.3177490234375	-1160.475219726562	445.6312561035156	-715.8232421875	-1134.169921875	597.2239379882812	-739.1987915039062	-1240.0048828125	41.67022705078125	-710.6975708007812	-1174.548706054688	301.2763977050781	-730.5201416015625	-997.5753173828125	45.06513977050781	-678.7560424804688	-1068.401611328125	51.77911376953125	-638.9063720703125	-1089.3994140625	44.90978622436523	-750.6166381835938	-1272.112182617188	46.72211837768555	-639.3037719726562	-1123.453857421875	471.6013793945312	-372.8313293457031	-1100.816162109375	731.1520385742188	-337.6268310546875	-1158.20068359375	43.37972640991211	-356.9873657226562	-1116.331176757812	330.3489074707031	-361.7080078125	-961.96630859375	49.04034423828125	-455.0193176269531	-1032.29541015625	54.55248260498047	-475.9793395996094	-1021.105407714844	46.11180114746094	-368.6316223144531	-1233.6064453125	34.34788131713867	-386.8237915039062	
